<svg xmlns="http://www.w3.org/2000/svg" version="1.1" xmlns:xlink="http://www.w3.org/1999/xlink" xmlns:svgjs="http://svgjs.com/svgjs" width="1500" height="1000" preserveAspectRatio="none" viewBox="0 0 1500 1000"><g mask="url(&quot;#SvgjsMask1014&quot;)" fill="none"><rect width="1500" height="1000" x="0" y="0" fill="rgba(138, 193, 235, 1)"></rect><path d="M0,498.726C111.051,502.376,229.56,562.353,326.451,507.967C423.728,453.364,438.787,322.884,489.907,223.733C544.022,118.774,651.907,25.572,635.454,-91.364C619.001,-208.299,493.953,-272.446,408.612,-354.064C331.465,-427.845,262.366,-514.656,160.267,-545.82C57.66,-577.139,-50.132,-551.062,-154.425,-525.924C-263.52,-499.629,-394.552,-489.41,-457.945,-396.812C-521.299,-304.271,-443.899,-176.789,-468.37,-67.341C-496.049,56.456,-643.081,155.901,-608.832,278.044C-575.561,396.699,-428.801,444.96,-312.946,486.954C-212.776,523.262,-106.49,495.226,0,498.726" fill="#7ab9e8"></path><path d="M1500 1542.243C1599.9 1543.453 1668.819 1442.07 1737.43 1369.4479999999999 1793.188 1310.431 1816.825 1233.484 1857.882 1163.439 1904.717 1083.537 1985.2640000000001 1020.74 1995.7649999999999 928.72 2007.378 826.956 1998.455 701.126 1917.853 637.928 1835.312 573.21 1714.456 632.922 1609.791 626.086 1532.547 621.0409999999999 1460.334 594.124 1383.438 603.025 1294.519 613.317 1204.588 628.61 1132.269 681.3589999999999 1049.255 741.909 972.721 820.903 947.997 920.634 922.36 1024.049 934.091 1143.52 996.244 1230.058 1056.038 1313.313 1179.1109999999999 1309.745 1266.239 1363.739 1351.297 1416.451 1399.94 1541.031 1500 1542.243" fill="#9ac9ee"></path></g><defs><mask id="SvgjsMask1014"><rect width="1500" height="1000" fill="#ffffff"></rect></mask></defs></svg>