<svg xmlns="http://www.w3.org/2000/svg" version="1.1" xmlns:xlink="http://www.w3.org/1999/xlink" xmlns:svgjs="http://svgjs.com/svgjs" width="700" height="1000" preserveAspectRatio="none" viewBox="0 0 700 1000"><g mask="url(&quot;#SvgjsMask1006&quot;)" fill="none"><rect width="700" height="1000" x="0" y="0" fill="rgba(138, 193, 235, 1)"></rect><path d="M0,294.076C53.398,283.883,79.399,224.097,125.151,194.738C170.95,165.349,239.835,168.991,267.736,122.271C295.697,75.451,279.282,14.41,264.128,-37.976C250.34,-85.64,216.725,-122.194,185.796,-160.993C153.485,-201.525,124.743,-245.055,79.248,-269.895C26.615,-298.632,-32.779,-323.314,-91.771,-312.545C-152.876,-301.39,-202.18,-257.372,-243.482,-210.978C-285.186,-164.133,-332.9,-109.692,-328.025,-47.163C-323.182,14.946,-249.93,45.911,-219.226,100.117C-192.336,147.589,-201.014,213.049,-160.152,249.201C-117.772,286.697,-55.582,304.686,0,294.076" fill="#7ab9e8"></path><path d="M700 1470.594C787.093 1467.104 859.273 1408.875 930.283 1358.328 998.265 1309.937 1061.4270000000001 1256.4279999999999 1102.73 1183.921 1146.785 1106.584 1182.8020000000001 1020.451 1173.156 931.97 1163.3690000000001 842.197 1117.651 756.447 1049.65 697.0260000000001 985.5160000000001 640.9839999999999 896.116 633.075 812.51 616.826 736.282 602.011 661.067 593.71 584.494 606.621 499.827 620.8969999999999 399.417 626.244 348.153 695.123 296.879 764.015 339.342 861.481 331.184 946.972 323.532 1027.161 279.008 1104.606 301.705 1181.895 325.662 1263.4769999999999 388.7 1327.368 457.544 1377.269 529.11 1429.143 611.682 1474.133 700 1470.594" fill="#9ac9ee"></path></g><defs><mask id="SvgjsMask1006"><rect width="700" height="1000" fill="#ffffff"></rect></mask></defs></svg>